# xmcd
#
# Track frame offsets:
#	150
#	22575
#	42825
#	63225
#	79800
#	98175
#	115125
#	133500
#	148200
#	167550
#	189825
#
# Disc length: 2742 seconds
#
# Revision: 1
# Processed by: cddbd v1.5.1PL2 Copyright (c) Steve Scherf et al.
# Submitted via: audiograbber 1.83.01
#
DISCID=850ab40b
DTITLE=KLINIKA - Klinika
DYEAR=2004
DGENRE=Pop
TTITLE0=Kraj (extended version)
TTITLE1=Zrno prasine
TTITLE2=Zasto
TTITLE3=Voli me - mrzi me
TTITLE4=Nerazumevanje
TTITLE5=Tipican dan
TTITLE6=Cuti telefon
TTITLE7=U tvojoj prici mene vise nema
TTITLE8=Paranoik
TTITLE9=Jabuka
TTITLE10=Kraj
EXTD=
EXTT0=
EXTT1=
EXTT2=
EXTT3=
EXTT4=
EXTT5=
EXTT6=
EXTT7=
EXTT8=
EXTT9=
EXTT10=
PLAYORDER=
